<svg width="25" height="25" viewBox="0 0 25 25" fill="none" xmlns="http://www.w3.org/2000/svg">
<path d="M17.6816 9.25134V7.25134C17.6816 6.72091 17.4709 6.2122 17.0959 5.83713C16.7208 5.46206 16.2121 5.25134 15.6816 5.25134H5.68164C5.15121 5.25134 4.6425 5.46206 4.26743 5.83713C3.89235 6.2122 3.68164 6.72091 3.68164 7.25134V13.2513C3.68164 13.7818 3.89235 14.2905 4.26743 14.6656C4.6425 15.0406 5.15121 15.2513 5.68164 15.2513H7.68164M9.68164 19.2513H19.6816C20.2121 19.2513 20.7208 19.0406 21.0959 18.6656C21.4709 18.2905 21.6816 17.7818 21.6816 17.2513V11.2513C21.6816 10.7209 21.4709 10.2122 21.0959 9.83713C20.7208 9.46206 20.2121 9.25134 19.6816 9.25134H9.68164C9.15121 9.25134 8.6425 9.46206 8.26743 9.83713C7.89235 10.2122 7.68164 10.7209 7.68164 11.2513V17.2513C7.68164 17.7818 7.89235 18.2905 8.26743 18.6656C8.6425 19.0406 9.15121 19.2513 9.68164 19.2513ZM16.6816 14.2513C16.6816 14.7818 16.4709 15.2905 16.0959 15.6656C15.7208 16.0406 15.2121 16.2513 14.6816 16.2513C14.1512 16.2513 13.6425 16.0406 13.2674 15.6656C12.8924 15.2905 12.6816 14.7818 12.6816 14.2513C12.6816 13.7209 12.8924 13.2122 13.2674 12.8371C13.6425 12.4621 14.1512 12.2513 14.6816 12.2513C15.2121 12.2513 15.7208 12.4621 16.0959 12.8371C16.4709 13.2122 16.6816 13.7209 16.6816 14.2513Z" stroke="black" stroke-width="2" stroke-linecap="round" stroke-linejoin="round"/>
</svg>
