<svg width="24" height="24" viewBox="0 0 24 24" fill="none" xmlns="http://www.w3.org/2000/svg">
<path fill-rule="evenodd" clip-rule="evenodd" d="M4.66667 5C3.97779 5 3.30614 5.25747 2.80214 5.73267C2.29614 6.20975 2 6.86982 2 7.57143V9.14286V15.4286C2 16.1302 2.29615 16.7902 2.80214 17.2673C3.30614 17.7425 3.97779 18 4.66667 18H9.5C9.5 17.1716 10.1716 16.5 11 16.5H18.7577C18.7707 16.4725 18.7833 16.4447 18.7954 16.4167L18.4393 16.0607C17.8536 15.4749 17.8536 14.5251 18.4393 13.9393C18.6031 13.7756 18.7953 13.6576 19 13.5854V9.14286V7.57143C19 6.86982 18.7039 6.20975 18.1979 5.73267C17.6939 5.25747 17.0222 5 16.3333 5H4.66667ZM4 15.4286V10.1429H9.66667H9.66911H9.67155H9.674H9.67645H9.6789H9.68135H9.6838H9.68626H9.68872H9.69118H9.69364H9.6961H9.69857H9.70104H9.70351H9.70598H9.70845H9.71092H9.7134H9.71588H9.71836H9.72084H9.72332H9.72581H9.7283H9.73078H9.73328H9.73577H9.73826H9.74076H9.74325H9.74575H9.74825H9.75075H9.75326H9.75576H9.75827H9.76078H9.76329H9.7658H9.76831H9.77083H9.77334H9.77586H9.77838H9.7809H9.78342H9.78594H9.78847H9.79099H9.79352H9.79605H9.79858H9.80111H9.80365H9.80618H9.80872H9.81125H9.81379H9.81633H9.81887H9.82141H9.82396H9.8265H9.82905H9.8316H9.83414H9.83669H9.83924H9.8418H9.84435H9.8469H9.84946H9.85202H9.85458H9.85713H9.85969H9.86226H9.86482H9.86738H9.86995H9.87251H9.87508H9.87765H9.88021H9.88278H9.88535H9.88793H9.8905H9.89307H9.89565H9.89822H9.9008H9.90338H9.90595H9.90853H9.91111H9.91369H9.91628H9.91886H9.92144H9.92403H9.92661H9.9292H9.93178H9.93437H9.93696H9.93955H9.94214H9.94473H9.94732H9.94991H9.9525H9.95509H9.95769H9.96028H9.96288H9.96547H9.96807H9.97066H9.97326H9.97586H9.97846H9.98106H9.98366H9.98626H9.98886H9.99146H9.99406H9.99666H9.99927H10.0019H10.0045H10.0071H10.0097H10.0123H10.0149H10.0175H10.0201H10.0227H10.0253H10.0279H10.0305H10.0331H10.0357H10.0384H10.041H10.0436H10.0462H10.0488H10.0514H10.054H10.0566H10.0592H10.0618H10.0645H10.0671H10.0697H10.0723H10.0749H10.0775H10.0801H10.0827H10.0853H10.088H10.0906H10.0932H10.0958H10.0984H10.101H10.1036H10.1062H10.1089H10.1115H10.1141H10.1167H10.1193H10.1219H10.1245H10.1271H10.1297H10.1324H10.135H10.1376H10.1402H10.1428H10.1454H10.148H10.1506H10.1532H10.1559H10.1585H10.1611H10.1637H10.1663H10.1689H10.1715H10.1741H10.1767H10.1793H10.1819H10.1845H10.1872H10.1898H10.1924H10.195H10.1976H10.2002H10.2028H10.2054H10.208H10.2106H10.2132H10.2158H10.2184H10.221H10.2236H10.2262H10.2288H10.2314H10.234H10.2366H10.2392H10.2418H10.2444H10.247H10.2496H10.2522H10.2547H10.2573H10.2599H10.2625H10.2651H10.2677H10.2703H10.2729H10.2755H10.278H10.2806H10.2832H10.2858H10.2884H10.291H10.2935H10.2961H10.2987H10.3013H10.3039H10.3064H10.309H10.3116H10.3142H10.3167H10.3193H10.3219H10.3244H10.327H10.3296H10.3322H10.3347H10.3373H10.3398H10.3424H10.345H10.3475H10.3501H10.3526H10.3552H10.3578H10.3603H10.3629H10.3654H10.368H10.3705H10.3731H10.3756H10.3782H10.3807H10.3833H10.3858H10.3883H10.3909H10.3934H10.396H10.3985H10.401H10.4036H10.4061H10.4086H10.4112H10.4137H10.4162H10.4187H10.4213H10.4238H10.4263H10.4288H10.4313H10.4339H10.4364H10.4389H10.4414H10.4439H10.4464H10.4489H10.4514H10.4539H10.4564H10.4589H10.4614H10.4639H10.4664H10.4689H10.4714H10.4739H10.4764H10.4789H10.4814H10.4839H10.4863H10.4888H10.4913H10.4938H10.4962H10.4987H10.5012H10.5037H10.5061H10.5086H10.5111H10.5135H10.516H10.5184H10.5209H10.5234H10.5258H10.5283H10.5307H10.5332H10.5356H10.538H10.5405H10.5429H10.5454H10.5478H10.5502H10.5527H10.5551H10.5575H10.5599H10.5624H10.5648H10.5672H10.5696H10.572H10.5744H10.5768H10.5793H10.5817H10.5841H10.5865H10.5889H10.5913H10.5937H10.596H10.5984H10.6008H10.6032H10.6056H10.608H10.6103H10.6127H10.6151H10.6175H10.6198H10.6222H10.6246H10.6269H10.6293H10.6316H10.634H10.6364H10.6387H10.641H10.6434H10.6457H10.6481H10.6504H10.6527H10.6551H10.6574H10.6597H10.6621H10.6644H10.6667H10.669H10.6713H10.6736H10.6759H10.6782H10.6805H10.6828H10.6851H10.6874H10.6897H10.692H10.6943H10.6966H10.6989H10.7011H10.7034H10.7057H10.708H10.7102H10.7125H10.7148H10.717H10.7193H10.7215H10.7238H10.726H10.7283H10.7305H10.7327H10.735H10.7372H10.7394H10.7417H10.7439H10.7461H10.7483H10.7505H10.7527H10.7549H10.7571H10.7593H10.7615H10.7637H10.7659H10.7681H10.7703H10.7725H10.7747H10.7768H10.779H10.7812H10.7834H10.7855H10.7877H10.7898H10.792H10.7941H10.7963H10.7984H10.8006H10.8027H10.8048H10.807H10.8091H10.8112H10.8133H10.8154H10.8176H10.8197H10.8218H10.8239H10.826H10.8281H10.8302H10.8323H10.8343H10.8364H10.8385H10.8406H10.8426H10.8447H10.8468H10.8488H10.8509H10.8529H10.855H10.857H10.8591H10.8611H10.8632H10.8652H10.8672H10.8692H10.8713H10.8733H10.8753H10.8773H10.8793H10.8813H10.8833H10.8853H10.8873H10.8893H10.8913H10.8932H10.8952H10.8972H10.8991H10.9011H10.9031H10.905H10.907H10.9089H10.9109H10.9128H10.9147H10.9167H10.9186H10.9205H10.9225H10.9244H10.9264H10.9283H10.9303H10.9322H10.9342H10.9362H10.9381H10.9401H10.9421H10.9441H10.946H10.948H10.95H10.952H10.954H10.956H10.958H10.9601H10.9621H10.9641H10.9661H10.9681H10.9702H10.9722H10.9742H10.9763H10.9783H10.9804H10.9824H10.9845H10.9866H10.9886H10.9907H10.9928H10.9948H10.9969H10.999H11.0011H11.0032H11.0053H11.0074H11.0095H11.0116H11.0137H11.0158H11.0179H11.02H11.0221H11.0242H11.0264H11.0285H11.0306H11.0328H11.0349H11.0371H11.0392H11.0413H11.0435H11.0457H11.0478H11.05H11.0521H11.0543H11.0565H11.0587H11.0608H11.063H11.0652H11.0674H11.0696H11.0718H11.074H11.0762H11.0784H11.0806H11.0828H11.085H11.0872H11.0895H11.0917H11.0939H11.0961H11.0984H11.1006H11.1028H11.1051H11.1073H11.1096H11.1118H11.1141H11.1163H11.1186H11.1208H11.1231H11.1254H11.1276H11.1299H11.1322H11.1345H11.1367H11.139H11.1413H11.1436H11.1459H11.1482H11.1505H11.1528H11.1551H11.1574H11.1597H11.162H11.1643H11.1666H11.169H11.1713H11.1736H11.1759H11.1783H11.1806H11.1829H11.1853H11.1876H11.1899H11.1923H11.1946H11.197H11.1993H11.2017H11.204H11.2064H11.2088H11.2111H11.2135H11.2159H11.2182H11.2206H11.223H11.2254H11.2277H11.2301H11.2325H11.2349H11.2373H11.2397H11.2421H11.2445H11.2469H11.2493H11.2517H11.2541H11.2565H11.2589H11.2613H11.2637H11.2661H11.2686H11.271H11.2734H11.2758H11.2782H11.2807H11.2831H11.2855H11.288H11.2904H11.2929H11.2953H11.2977H11.3002H11.3026H11.3051H11.3075H11.31H11.3124H11.3149H11.3174H11.3198H11.3223H11.3247H11.3272H11.3297H11.3321H11.3346H11.3371H11.3396H11.342H11.3445H11.347H11.3495H11.352H11.3545H11.3569H11.3594H11.3619H11.3644H11.3669H11.3694H11.3719H11.3744H11.3769H11.3794H11.3819H11.3844H11.3869H11.3894H11.3919H11.3944H11.397H11.3995H11.402H11.4045H11.407H11.4096H11.4121H11.4146H11.4171H11.4196H11.4222H11.4247H11.4272H11.4298H11.4323H11.4348H11.4374H11.4399H11.4425H11.445H11.4475H11.4501H11.4526H11.4552H11.4577H11.4603H11.4628H11.4654H11.4679H11.4705H11.473H11.4756H11.4781H11.4807H11.4832H11.4858H11.4884H11.4909H11.4935H11.496H11.4986H11.5012H11.5037H11.5063H11.5089H11.5115H11.514H11.5166H11.5192H11.5217H11.5243H11.5269H11.5295H11.532H11.5346H11.5372H11.5398H11.5424H11.5449H11.5475H11.5501H11.5527H11.5553H11.5579H11.5605H11.563H11.5656H11.5682H11.5708H11.5734H11.576H11.5786H11.5812H11.5838H11.5864H11.589H11.5916H11.5942H11.5967H11.5993H11.6019H11.6045H11.6071H11.6097H11.6123H11.6149H11.6175H11.6201H11.6227H11.6253H11.6279H11.6306H11.6332H11.6358H11.6384H11.641H11.6436H11.6462H11.6488H11.6514H11.654H11.6566H11.6592H11.6618H11.6644H11.667H11.6696H11.6723H11.6749H11.6775H11.6801H11.6827H11.6853H11.6879H11.6905H11.6931H11.6957H11.6984H11.701H11.7036H11.7062H11.7088H11.7114H11.714H11.7166H11.7193H11.7219H11.7245H11.7271H11.7297H11.7323H11.7349H11.7375H11.7402H11.7428H11.7454H11.748H11.7506H11.7532H11.7558H11.7584H11.761H11.7637H11.7663H11.7689H11.7715H11.7741H11.7767H11.7793H11.7819H11.7845H11.7871H11.7898H11.7924H11.795H11.7976H11.8002H11.8028H11.8054H11.808H11.8106H11.8132H11.8158H11.8184H11.821H11.8237H11.8263H11.8289H11.8315H11.8341H11.8367H11.8393H11.8419H11.8445H11.8471H11.8497H11.8523H11.8549H11.8575H11.8601H11.8627H11.8653H11.8679H11.8705H11.8731H11.8756H11.8782H11.8808H11.8834H11.886H11.8886H11.8912H11.8938H11.8964H11.899H11.9016H11.9041H11.9067H11.9093H11.9119H11.9145H11.9171H11.9196H11.9222H11.9248H11.9274H11.93H11.9325H11.9351H11.9377H11.9403H11.9428H11.9454H11.948H11.9505H11.9531H11.9557H11.9583H11.9608H11.9634H11.966H11.9685H11.9711H11.9736H11.9762H11.9788H11.9813H11.9839H11.9864H11.989H11.9915H11.9941H11.9966H11.9992H12.0017H12.0043H12.0068H12.0094H12.0119H12.0145H12.017H12.0195H12.0221H12.0246H12.0272H12.0297H12.0322H12.0348H12.0373H12.0398H12.0423H12.0449H12.0474H12.0499H12.0524H12.055H12.0575H12.06H12.0625H12.065H12.0675H12.07H12.0726H12.0751H12.0776H12.0801H12.0826H12.0851H12.0876H12.0901H12.0926H12.0951H12.0976H12.1001H12.1025H12.105H12.1075H12.11H12.1125H12.115H12.1175H12.1199H12.1224H12.1249H12.1274H12.1298H12.1323H12.1348H12.1372H12.1397H12.1422H12.1446H12.1471H12.1495H12.152H12.1544H12.1569H12.1593H12.1618H12.1642H12.1667H17V15.4286C17 15.5605 16.945 15.6998 16.8258 15.8121C16.7047 15.9263 16.5285 16 16.3333 16H4.66667C4.47149 16 4.29529 15.9263 4.17417 15.8121C4.05504 15.6998 4 15.5605 4 15.4286ZM12.1667 8.14286H17V7.57143C17 7.4395 16.945 7.30017 16.8258 7.18785C16.7047 7.07365 16.5285 7 16.3333 7H4.66667C4.47149 7 4.29529 7.07365 4.17417 7.18785C4.05504 7.30017 4 7.4395 4 7.57143V8.14286H9.66667H9.66911H9.67155H9.674H9.67645H9.6789H9.68135H9.6838H9.68626H9.68872H9.69118H9.69364H9.6961H9.69857H9.70104H9.70351H9.70598H9.70845H9.71092H9.7134H9.71588H9.71836H9.72084H9.72332H9.72581H9.7283H9.73078H9.73328H9.73577H9.73826H9.74076H9.74325H9.74575H9.74825H9.75075H9.75326H9.75576H9.75827H9.76078H9.76329H9.7658H9.76831H9.77083H9.77334H9.77586H9.77838H9.7809H9.78342H9.78594H9.78847H9.79099H9.79352H9.79605H9.79858H9.80111H9.80365H9.80618H9.80872H9.81125H9.81379H9.81633H9.81887H9.82141H9.82396H9.8265H9.82905H9.8316H9.83414H9.83669H9.83924H9.8418H9.84435H9.8469H9.84946H9.85202H9.85458H9.85713H9.85969H9.86226H9.86482H9.86738H9.86995H9.87251H9.87508H9.87765H9.88021H9.88278H9.88535H9.88793H9.8905H9.89307H9.89565H9.89822H9.9008H9.90338H9.90595H9.90853H9.91111H9.91369H9.91628H9.91886H9.92144H9.92403H9.92661H9.9292H9.93178H9.93437H9.93696H9.93955H9.94214H9.94473H9.94732H9.94991H9.9525H9.95509H9.95769H9.96028H9.96288H9.96547H9.96807H9.97066H9.97326H9.97586H9.97846H9.98106H9.98366H9.98626H9.98886H9.99146H9.99406H9.99666H9.99927H10.0019H10.0045H10.0071H10.0097H10.0123H10.0149H10.0175H10.0201H10.0227H10.0253H10.0279H10.0305H10.0331H10.0357H10.0384H10.041H10.0436H10.0462H10.0488H10.0514H10.054H10.0566H10.0592H10.0618H10.0645H10.0671H10.0697H10.0723H10.0749H10.0775H10.0801H10.0827H10.0853H10.088H10.0906H10.0932H10.0958H10.0984H10.101H10.1036H10.1062H10.1089H10.1115H10.1141H10.1167H10.1193H10.1219H10.1245H10.1271H10.1297H10.1324H10.135H10.1376H10.1402H10.1428H10.1454H10.148H10.1506H10.1532H10.1559H10.1585H10.1611H10.1637H10.1663H10.1689H10.1715H10.1741H10.1767H10.1793H10.1819H10.1845H10.1872H10.1898H10.1924H10.195H10.1976H10.2002H10.2028H10.2054H10.208H10.2106H10.2132H10.2158H10.2184H10.221H10.2236H10.2262H10.2288H10.2314H10.234H10.2366H10.2392H10.2418H10.2444H10.247H10.2496H10.2522H10.2547H10.2573H10.2599H10.2625H10.2651H10.2677H10.2703H10.2729H10.2755H10.278H10.2806H10.2832H10.2858H10.2884H10.291H10.2935H10.2961H10.2987H10.3013H10.3039H10.3064H10.309H10.3116H10.3142H10.3167H10.3193H10.3219H10.3244H10.327H10.3296H10.3322H10.3347H10.3373H10.3398H10.3424H10.345H10.3475H10.3501H10.3526H10.3552H10.3578H10.3603H10.3629H10.3654H10.368H10.3705H10.3731H10.3756H10.3782H10.3807H10.3833H10.3858H10.3883H10.3909H10.3934H10.396H10.3985H10.401H10.4036H10.4061H10.4086H10.4112H10.4137H10.4162H10.4187H10.4213H10.4238H10.4263H10.4288H10.4313H10.4339H10.4364H10.4389H10.4414H10.4439H10.4464H10.4489H10.4514H10.4539H10.4564H10.4589H10.4614H10.4639H10.4664H10.4689H10.4714H10.4739H10.4764H10.4789H10.4814H10.4839H10.4863H10.4888H10.4913H10.4938H10.4962H10.4987H10.5012H10.5037H10.5061H10.5086H10.5111H10.5135H10.516H10.5184H10.5209H10.5234H10.5258H10.5283H10.5307H10.5332H10.5356H10.538H10.5405H10.5429H10.5454H10.5478H10.5502H10.5527H10.5551H10.5575H10.5599H10.5624H10.5648H10.5672H10.5696H10.572H10.5744H10.5768H10.5793H10.5817H10.5841H10.5865H10.5889H10.5913H10.5937H10.596H10.5984H10.6008H10.6032H10.6056H10.608H10.6103H10.6127H10.6151H10.6175H10.6198H10.6222H10.6246H10.6269H10.6293H10.6316H10.634H10.6364H10.6387H10.641H10.6434H10.6457H10.6481H10.6504H10.6527H10.6551H10.6574H10.6597H10.6621H10.6644H10.6667H10.669H10.6713H10.6736H10.6759H10.6782H10.6805H10.6828H10.6851H10.6874H10.6897H10.692H10.6943H10.6966H10.6989H10.7011H10.7034H10.7057H10.708H10.7102H10.7125H10.7148H10.717H10.7193H10.7215H10.7238H10.726H10.7283H10.7305H10.7327H10.735H10.7372H10.7394H10.7417H10.7439H10.7461H10.7483H10.7505H10.7527H10.7549H10.7571H10.7593H10.7615H10.7637H10.7659H10.7681H10.7703H10.7725H10.7747H10.7768H10.779H10.7812H10.7834H10.7855H10.7877H10.7898H10.792H10.7941H10.7963H10.7984H10.8006H10.8027H10.8048H10.807H10.8091H10.8112H10.8133H10.8154H10.8176H10.8197H10.8218H10.8239H10.826H10.8281H10.8302H10.8323H10.8343H10.8364H10.8385H10.8406H10.8426H10.8447H10.8468H10.8488H10.8509H10.8529H10.855H10.857H10.8591H10.8611H10.8632H10.8652H10.8672H10.8692H10.8713H10.8733H10.8753H10.8773H10.8793H10.8813H10.8833H10.8853H10.8873H10.8893H10.8913H10.8932H10.8952H10.8972H10.8991H10.9011H10.9031H10.905H10.907H10.9089H10.9109H10.9128H10.9147H10.9167H10.9186H10.9205H10.9225H10.9244H10.9264H10.9283H10.9303H10.9322H10.9342H10.9362H10.9381H10.9401H10.9421H10.9441H10.946H10.948H10.95H10.952H10.954H10.956H10.958H10.9601H10.9621H10.9641H10.9661H10.9681H10.9702H10.9722H10.9742H10.9763H10.9783H10.9804H10.9824H10.9845H10.9866H10.9886H10.9907H10.9928H10.9948H10.9969H10.999H11.0011H11.0032H11.0053H11.0074H11.0095H11.0116H11.0137H11.0158H11.0179H11.02H11.0221H11.0242H11.0264H11.0285H11.0306H11.0328H11.0349H11.0371H11.0392H11.0413H11.0435H11.0457H11.0478H11.05H11.0521H11.0543H11.0565H11.0587H11.0608H11.063H11.0652H11.0674H11.0696H11.0718H11.074H11.0762H11.0784H11.0806H11.0828H11.085H11.0872H11.0895H11.0917H11.0939H11.0961H11.0984H11.1006H11.1028H11.1051H11.1073H11.1096H11.1118H11.1141H11.1163H11.1186H11.1208H11.1231H11.1254H11.1276H11.1299H11.1322H11.1345H11.1367H11.139H11.1413H11.1436H11.1459H11.1482H11.1505H11.1528H11.1551H11.1574H11.1597H11.162H11.1643H11.1666H11.169H11.1713H11.1736H11.1759H11.1783H11.1806H11.1829H11.1853H11.1876H11.1899H11.1923H11.1946H11.197H11.1993H11.2017H11.204H11.2064H11.2088H11.2111H11.2135H11.2159H11.2182H11.2206H11.223H11.2254H11.2277H11.2301H11.2325H11.2349H11.2373H11.2397H11.2421H11.2445H11.2469H11.2493H11.2517H11.2541H11.2565H11.2589H11.2613H11.2637H11.2661H11.2686H11.271H11.2734H11.2758H11.2782H11.2807H11.2831H11.2855H11.288H11.2904H11.2929H11.2953H11.2977H11.3002H11.3026H11.3051H11.3075H11.31H11.3124H11.3149H11.3174H11.3198H11.3223H11.3247H11.3272H11.3297H11.3321H11.3346H11.3371H11.3396H11.342H11.3445H11.347H11.3495H11.352H11.3545H11.3569H11.3594H11.3619H11.3644H11.3669H11.3694H11.3719H11.3744H11.3769H11.3794H11.3819H11.3844H11.3869H11.3894H11.3919H11.3944H11.397H11.3995H11.402H11.4045H11.407H11.4096H11.4121H11.4146H11.4171H11.4196H11.4222H11.4247H11.4272H11.4298H11.4323H11.4348H11.4374H11.4399H11.4425H11.445H11.4475H11.4501H11.4526H11.4552H11.4577H11.4603H11.4628H11.4654H11.4679H11.4705H11.473H11.4756H11.4781H11.4807H11.4832H11.4858H11.4884H11.4909H11.4935H11.496H11.4986H11.5012H11.5037H11.5063H11.5089H11.5115H11.514H11.5166H11.5192H11.5217H11.5243H11.5269H11.5295H11.532H11.5346H11.5372H11.5398H11.5424H11.5449H11.5475H11.5501H11.5527H11.5553H11.5579H11.5605H11.563H11.5656H11.5682H11.5708H11.5734H11.576H11.5786H11.5812H11.5838H11.5864H11.589H11.5916H11.5942H11.5967H11.5993H11.6019H11.6045H11.6071H11.6097H11.6123H11.6149H11.6175H11.6201H11.6227H11.6253H11.6279H11.6306H11.6332H11.6358H11.6384H11.641H11.6436H11.6462H11.6488H11.6514H11.654H11.6566H11.6592H11.6618H11.6644H11.667H11.6696H11.6723H11.6749H11.6775H11.6801H11.6827H11.6853H11.6879H11.6905H11.6931H11.6957H11.6984H11.701H11.7036H11.7062H11.7088H11.7114H11.714H11.7166H11.7193H11.7219H11.7245H11.7271H11.7297H11.7323H11.7349H11.7375H11.7402H11.7428H11.7454H11.748H11.7506H11.7532H11.7558H11.7584H11.761H11.7637H11.7663H11.7689H11.7715H11.7741H11.7767H11.7793H11.7819H11.7845H11.7871H11.7898H11.7924H11.795H11.7976H11.8002H11.8028H11.8054H11.808H11.8106H11.8132H11.8158H11.8184H11.821H11.8237H11.8263H11.8289H11.8315H11.8341H11.8367H11.8393H11.8419H11.8445H11.8471H11.8497H11.8523H11.8549H11.8575H11.8601H11.8627H11.8653H11.8679H11.8705H11.8731H11.8756H11.8782H11.8808H11.8834H11.886H11.8886H11.8912H11.8938H11.8964H11.899H11.9016H11.9041H11.9067H11.9093H11.9119H11.9145H11.9171H11.9196H11.9222H11.9248H11.9274H11.93H11.9325H11.9351H11.9377H11.9403H11.9428H11.9454H11.948H11.9505H11.9531H11.9557H11.9583H11.9608H11.9634H11.966H11.9685H11.9711H11.9736H11.9762H11.9788H11.9813H11.9839H11.9864H11.989H11.9915H11.9941H11.9966H11.9992H12.0017H12.0043H12.0068H12.0094H12.0119H12.0145H12.017H12.0195H12.0221H12.0246H12.0272H12.0297H12.0322H12.0348H12.0373H12.0398H12.0423H12.0449H12.0474H12.0499H12.0524H12.055H12.0575H12.06H12.0625H12.065H12.0675H12.07H12.0726H12.0751H12.0776H12.0801H12.0826H12.0851H12.0876H12.0901H12.0926H12.0951H12.0976H12.1001H12.1025H12.105H12.1075H12.11H12.1125H12.115H12.1175H12.1199H12.1224H12.1249H12.1274H12.1298H12.1323H12.1348H12.1372H12.1397H12.1422H12.1446H12.1471H12.1495H12.152H12.1544H12.1569H12.1593H12.1618H12.1642H12.1667Z" fill="#919396"/>
<path d="M19.5 15L22.5 18M22.5 18L19.5 21M22.5 18H11" stroke="#919396" stroke-width="2" stroke-linecap="round" stroke-linejoin="round"/>
</svg>
