<svg width="422" height="117" viewBox="0 0 422 117" fill="none" xmlns="http://www.w3.org/2000/svg">
<ellipse cx="211" cy="58" rx="115" ry="55" fill="url(#paint0_radial_657_297)"/>
<g filter="url(#filter0_d_657_297)">
<path d="M3 2.5C2.72386 2.5 2.5 2.72386 2.5 3C2.5 3.27614 2.72386 3.5 3 3.5V2.5ZM80 3L80.3835 2.67918L80.2336 2.5H80V3ZM123.5 55L123.116 55.3208L123.266 55.5H123.5V55ZM3 3.5H80V2.5H3V3.5ZM79.6165 3.32082L123.116 55.3208L123.884 54.6792L80.3835 2.67918L79.6165 3.32082ZM123.5 55.5H170V54.5H123.5V55.5Z" fill="url(#paint1_linear_657_297)"/>
<path d="M3 82.5C2.72386 82.5 2.5 82.2761 2.5 82C2.5 81.7239 2.72386 81.5 3 81.5V82.5ZM80 82L80.182 82.4657L80.0942 82.5H80V82ZM123.5 65L123.318 64.5343L123.406 64.5H123.5V65ZM3 81.5H80V82.5H3V81.5ZM79.818 81.5343L123.318 64.5343L123.682 65.4657L80.182 82.4657L79.818 81.5343ZM123.5 64.5H170V65.5H123.5V64.5Z" fill="url(#paint2_linear_657_297)"/>
<path d="M3 114.5C2.72386 114.5 2.5 114.276 2.5 114C2.5 113.724 2.72386 113.5 3 113.5V114.5ZM80 114L80.3429 114.364L80.1985 114.5H80V114ZM123.5 73L123.157 72.6361L123.302 72.5H123.5V73ZM3 113.5H80V114.5H3V113.5ZM79.6571 113.636L123.157 72.6361L123.843 73.3639L80.3429 114.364L79.6571 113.636ZM123.5 72.5H170V73.5H123.5V72.5Z" fill="url(#paint3_linear_657_297)"/>
</g>
<g filter="url(#filter1_d_657_297)">
<path d="M188.68 36.9911L188.68 36.9911C185.543 38.0909 183.892 41.5255 184.991 44.6625L196.042 76.1843C197.142 79.3213 200.577 80.9728 203.714 79.873C206.851 78.7733 208.502 75.3386 207.403 72.2016L196.352 40.6798C195.252 37.5428 191.817 35.8913 188.68 36.9911Z" fill="#04182B"/>
</g>
<g filter="url(#filter2_d_657_297)">
<path d="M209.295 37.1258L209.295 37.1258C206.158 38.2256 204.507 41.6602 205.607 44.7973L216.658 76.3191C217.757 79.4561 221.192 81.1076 224.329 80.0078C227.466 78.908 229.118 75.4734 228.018 72.3364L216.967 40.8146C215.867 37.6776 212.432 36.0261 209.295 37.1258Z" fill="#04182B"/>
</g>
<g filter="url(#filter3_d_657_297)">
<path d="M238 43.259C238 45.7015 231.423 57 231.423 57C231.423 57 225 45.7015 225 43.259C225 39.8023 227.91 37 231.5 37C235.09 37 238 39.8023 238 43.259Z" fill="#04182B"/>
</g>
<g filter="url(#filter4_d_657_297)">
<path d="M419 2.5C419.276 2.5 419.5 2.72386 419.5 3C419.5 3.27614 419.276 3.5 419 3.5V2.5ZM322 3L321.544 2.79409L321.677 2.5H322V3ZM298.5 55L298.956 55.2059L298.823 55.5H298.5V55ZM419 3.5H322V2.5H419V3.5ZM322.456 3.20591L298.956 55.2059L298.044 54.7941L321.544 2.79409L322.456 3.20591ZM298.5 55.5H252V54.5H298.5V55.5Z" fill="url(#paint4_linear_657_297)"/>
</g>
<g filter="url(#filter5_d_657_297)">
<path d="M419 38.5C419.276 38.5 419.5 38.7239 419.5 39C419.5 39.2761 419.276 39.5 419 39.5V38.5ZM342 39L341.607 38.6904L341.758 38.5H342V39ZM321.5 65L321.893 65.3096L321.742 65.5H321.5V65ZM419 39.5H342V38.5H419V39.5ZM342.393 39.3096L321.893 65.3096L321.107 64.6904L341.607 38.6904L342.393 39.3096ZM321.5 65.5H252V64.5H321.5V65.5Z" fill="url(#paint5_linear_657_297)"/>
</g>
<g filter="url(#filter6_d_657_297)">
<path d="M419 114.5C419.276 114.5 419.5 114.276 419.5 114C419.5 113.724 419.276 113.5 419 113.5V114.5ZM341.5 114L341.155 114.362L341.3 114.5H341.5V114ZM298.5 73L298.845 72.6381L298.7 72.5H298.5V73ZM419 113.5H341.5V114.5H419V113.5ZM341.845 113.638L298.845 72.6381L298.155 73.3619L341.155 114.362L341.845 113.638ZM298.5 72.5H252V73.5H298.5V72.5Z" fill="url(#paint6_linear_657_297)"/>
</g>
<defs>
<filter id="filter0_d_657_297" x="0.2" y="0.2" width="172.1" height="116.6" filterUnits="userSpaceOnUse" color-interpolation-filters="sRGB">
<feFlood flood-opacity="0" result="BackgroundImageFix"/>
<feColorMatrix in="SourceAlpha" type="matrix" values="0 0 0 0 0 0 0 0 0 0 0 0 0 0 0 0 0 0 127 0" result="hardAlpha"/>
<feOffset/>
<feGaussianBlur stdDeviation="1.15"/>
<feComposite in2="hardAlpha" operator="out"/>
<feColorMatrix type="matrix" values="0 0 0 0 0 0 0 0 0 0 0 0 0 0 0 0 0 0 0.25 0"/>
<feBlend mode="normal" in2="BackgroundImageFix" result="effect1_dropShadow_657_297"/>
<feBlend mode="normal" in="SourceGraphic" in2="effect1_dropShadow_657_297" result="shape"/>
</filter>
<filter id="filter1_d_657_297" x="180.651" y="36.6505" width="31.0923" height="51.5632" filterUnits="userSpaceOnUse" color-interpolation-filters="sRGB">
<feFlood flood-opacity="0" result="BackgroundImageFix"/>
<feColorMatrix in="SourceAlpha" type="matrix" values="0 0 0 0 0 0 0 0 0 0 0 0 0 0 0 0 0 0 127 0" result="hardAlpha"/>
<feOffset dy="4"/>
<feGaussianBlur stdDeviation="2"/>
<feComposite in2="hardAlpha" operator="out"/>
<feColorMatrix type="matrix" values="0 0 0 0 0 0 0 0 0 0 0 0 0 0 0 0 0 0 0.25 0"/>
<feBlend mode="normal" in2="BackgroundImageFix" result="effect1_dropShadow_657_297"/>
<feBlend mode="normal" in="SourceGraphic" in2="effect1_dropShadow_657_297" result="shape"/>
</filter>
<filter id="filter2_d_657_297" x="201.266" y="36.7852" width="31.0923" height="51.5632" filterUnits="userSpaceOnUse" color-interpolation-filters="sRGB">
<feFlood flood-opacity="0" result="BackgroundImageFix"/>
<feColorMatrix in="SourceAlpha" type="matrix" values="0 0 0 0 0 0 0 0 0 0 0 0 0 0 0 0 0 0 127 0" result="hardAlpha"/>
<feOffset dy="4"/>
<feGaussianBlur stdDeviation="2"/>
<feComposite in2="hardAlpha" operator="out"/>
<feColorMatrix type="matrix" values="0 0 0 0 0 0 0 0 0 0 0 0 0 0 0 0 0 0 0.25 0"/>
<feBlend mode="normal" in2="BackgroundImageFix" result="effect1_dropShadow_657_297"/>
<feBlend mode="normal" in="SourceGraphic" in2="effect1_dropShadow_657_297" result="shape"/>
</filter>
<filter id="filter3_d_657_297" x="221" y="37" width="21" height="28" filterUnits="userSpaceOnUse" color-interpolation-filters="sRGB">
<feFlood flood-opacity="0" result="BackgroundImageFix"/>
<feColorMatrix in="SourceAlpha" type="matrix" values="0 0 0 0 0 0 0 0 0 0 0 0 0 0 0 0 0 0 127 0" result="hardAlpha"/>
<feOffset dy="4"/>
<feGaussianBlur stdDeviation="2"/>
<feComposite in2="hardAlpha" operator="out"/>
<feColorMatrix type="matrix" values="0 0 0 0 0 0 0 0 0 0 0 0 0 0 0 0 0 0 0.25 0"/>
<feBlend mode="normal" in2="BackgroundImageFix" result="effect1_dropShadow_657_297"/>
<feBlend mode="normal" in="SourceGraphic" in2="effect1_dropShadow_657_297" result="shape"/>
</filter>
<filter id="filter4_d_657_297" x="249.7" y="0.2" width="172.1" height="57.6" filterUnits="userSpaceOnUse" color-interpolation-filters="sRGB">
<feFlood flood-opacity="0" result="BackgroundImageFix"/>
<feColorMatrix in="SourceAlpha" type="matrix" values="0 0 0 0 0 0 0 0 0 0 0 0 0 0 0 0 0 0 127 0" result="hardAlpha"/>
<feOffset/>
<feGaussianBlur stdDeviation="1.15"/>
<feComposite in2="hardAlpha" operator="out"/>
<feColorMatrix type="matrix" values="0 0 0 0 0 0 0 0 0 0 0 0 0 0 0 0 0 0 0.41 0"/>
<feBlend mode="normal" in2="BackgroundImageFix" result="effect1_dropShadow_657_297"/>
<feBlend mode="normal" in="SourceGraphic" in2="effect1_dropShadow_657_297" result="shape"/>
</filter>
<filter id="filter5_d_657_297" x="249.7" y="36.2" width="172.1" height="31.6" filterUnits="userSpaceOnUse" color-interpolation-filters="sRGB">
<feFlood flood-opacity="0" result="BackgroundImageFix"/>
<feColorMatrix in="SourceAlpha" type="matrix" values="0 0 0 0 0 0 0 0 0 0 0 0 0 0 0 0 0 0 127 0" result="hardAlpha"/>
<feOffset/>
<feGaussianBlur stdDeviation="1.15"/>
<feComposite in2="hardAlpha" operator="out"/>
<feColorMatrix type="matrix" values="0 0 0 0 0 0 0 0 0 0 0 0 0 0 0 0 0 0 0.41 0"/>
<feBlend mode="normal" in2="BackgroundImageFix" result="effect1_dropShadow_657_297"/>
<feBlend mode="normal" in="SourceGraphic" in2="effect1_dropShadow_657_297" result="shape"/>
</filter>
<filter id="filter6_d_657_297" x="249.7" y="70.2" width="172.1" height="46.6" filterUnits="userSpaceOnUse" color-interpolation-filters="sRGB">
<feFlood flood-opacity="0" result="BackgroundImageFix"/>
<feColorMatrix in="SourceAlpha" type="matrix" values="0 0 0 0 0 0 0 0 0 0 0 0 0 0 0 0 0 0 127 0" result="hardAlpha"/>
<feOffset/>
<feGaussianBlur stdDeviation="1.15"/>
<feComposite in2="hardAlpha" operator="out"/>
<feColorMatrix type="matrix" values="0 0 0 0 0 0 0 0 0 0 0 0 0 0 0 0 0 0 0.41 0"/>
<feBlend mode="normal" in2="BackgroundImageFix" result="effect1_dropShadow_657_297"/>
<feBlend mode="normal" in="SourceGraphic" in2="effect1_dropShadow_657_297" result="shape"/>
</filter>
<radialGradient id="paint0_radial_657_297" cx="0" cy="0" r="1" gradientUnits="userSpaceOnUse" gradientTransform="translate(211 58) rotate(90) scale(55 115)">
<stop stop-color="white" stop-opacity="0.31"/>
<stop offset="0.0001" stop-color="white" stop-opacity="0.200467"/>
<stop offset="0.48" stop-color="white" stop-opacity="0.0682"/>
<stop offset="1" stop-color="white" stop-opacity="0"/>
</radialGradient>
<linearGradient id="paint1_linear_657_297" x1="3" y1="29" x2="170" y2="29" gradientUnits="userSpaceOnUse">
<stop stop-color="#04182B" stop-opacity="0.3"/>
<stop offset="1" stop-color="#0D5191" stop-opacity="0.8"/>
</linearGradient>
<linearGradient id="paint2_linear_657_297" x1="3" y1="73.5" x2="170" y2="73.5" gradientUnits="userSpaceOnUse">
<stop stop-color="#04182B" stop-opacity="0.3"/>
<stop offset="1" stop-color="#0D5191" stop-opacity="0.8"/>
</linearGradient>
<linearGradient id="paint3_linear_657_297" x1="3" y1="93.5" x2="170" y2="93.5" gradientUnits="userSpaceOnUse">
<stop stop-color="#04182B" stop-opacity="0.3"/>
<stop offset="1" stop-color="#0D5191" stop-opacity="0.8"/>
</linearGradient>
<linearGradient id="paint4_linear_657_297" x1="252" y1="29" x2="419" y2="29" gradientUnits="userSpaceOnUse">
<stop stop-color="#0D5191" stop-opacity="0.8"/>
<stop offset="1" stop-color="#04182B" stop-opacity="0.3"/>
</linearGradient>
<linearGradient id="paint5_linear_657_297" x1="252" y1="52" x2="419" y2="52" gradientUnits="userSpaceOnUse">
<stop stop-color="#0D5191" stop-opacity="0.8"/>
<stop offset="1" stop-color="#04182B" stop-opacity="0.3"/>
</linearGradient>
<linearGradient id="paint6_linear_657_297" x1="252" y1="93.5" x2="419" y2="93.5" gradientUnits="userSpaceOnUse">
<stop stop-color="#0D5191" stop-opacity="0.8"/>
<stop offset="1" stop-color="#04182B" stop-opacity="0.3"/>
</linearGradient>
</defs>
</svg>
